<svg width="16" height="16" viewBox="0 0 16 16" fill="none" xmlns="http://www.w3.org/2000/svg">
<path fill="black" xmlns="http://www.w3.org/2000/svg" class="st0" d="M14.2,8.8c-0.4,1-1.4,1.7-2.5,1.7c-1.5,0-2.7-1.2-2.7-2.7c0-0.3,0.1-0.6,0.2-0.9l0.1-0.3  c0.5-0.9,1.4-1.5,2.4-1.5c1.1,0,2.1,0.7,2.5,1.7L14.3,7l1.4-0.5l-0.1-0.2c-0.6-1.6-2.2-2.6-3.9-2.6c-0.4,0-0.8,0.1-1.2,0.2l1-2.4h-1  L8.6,6C7.9,4.6,6.5,3.7,4.8,3.7c-2.3,0-4.2,1.9-4.2,4.1c0,2.3,1.9,4.1,4.2,4.1c0.5,0,0.9-0.1,1.3-0.2l-1,2.3h1l2-4.4  C8.8,11,10.2,12,11.8,12c1.7,0,3.2-1,3.8-2.6l0.1-0.2l-1.4-0.5L14.2,8.8z M2.1,7.9c0-1.5,1.2-2.7,2.7-2.7s2.8,1.2,2.8,2.7  s-1.3,2.7-2.8,2.7S2.1,9.3,2.1,7.9z"/>
</svg>
